<?xml version="1.0" encoding="UTF-8"?>
<!DOCTYPE svg PUBLIC "-//W3C//DTD SVG 1.1//EN" "http://www.w3.org/Graphics/SVG/1.1/DTD/svg11.dtd">
<!-- Creator: CorelDRAW 2021 (64-Bit) -->
<svg xmlns="http://www.w3.org/2000/svg" xml:space="preserve" width="89.3904mm" height="52.6897mm" version="1.1" style="shape-rendering:geometricPrecision; text-rendering:geometricPrecision; image-rendering:optimizeQuality; fill-rule:evenodd; clip-rule:evenodd"
viewBox="0 0 3549.04 2091.93"
 xmlns:xlink="http://www.w3.org/1999/xlink"
 xmlns:xodm="http://www.corel.com/coreldraw/odm/2003">
 <defs>
  <style type="text/css">
   <![CDATA[
    .fil2 {fill:#0971B7}
    .fil0 {fill:url(#id0)}
    .fil4 {fill:url(#id1)}
    .fil1 {fill:url(#id2)}
    .fil3 {fill:url(#id3)}
   ]]>
  </style>
  <linearGradient id="id0" gradientUnits="userSpaceOnUse" x1="1469.52" y1="813.65" x2="2104.72" y2="-193.81">
   <stop offset="0" style="stop-opacity:1; stop-color:#77091A"/>
   <stop offset="1" style="stop-opacity:1; stop-color:#B1112B"/>
  </linearGradient>
  <linearGradient id="id1" gradientUnits="userSpaceOnUse" x1="1238.69" y1="988.85" x2="2028.18" y2="1631.06">
   <stop offset="0" style="stop-opacity:1; stop-color:#77091A"/>
   <stop offset="0.701961" style="stop-opacity:1; stop-color:#403D68"/>
   <stop offset="1" style="stop-opacity:1; stop-color:#0971B7"/>
  </linearGradient>
  <linearGradient id="id2" gradientUnits="userSpaceOnUse" xlink:href="#id0" x1="2101.11" y1="1278.27" x2="1465.91" y2="2285.73">
  </linearGradient>
  <linearGradient id="id3" gradientUnits="userSpaceOnUse" xlink:href="#id1" x1="1878.47" y1="529.5" x2="2036.74" y2="875.02">
  </linearGradient>
 </defs>
 <g id="Layer_x0020_1">
  <metadata id="CorelCorpID_0Corel-Layer"/>
  <g id="_1328135202992">
   <path class="fil0" d="M784.61 619.85c47.31,-92.11 94.6,-184.23 169.71,-270.11 75.11,-85.9 178.02,-165.57 290.04,-223.66 112.03,-58.1 233.21,-94.6 354.36,-112.86 121.16,-18.27 242.33,-18.27 364.32,4.14 121.98,22.41 244.81,67.21 357.68,131.12 112.86,63.9 215.76,146.88 292.26,227.2 76.48,80.32 126.56,157.97 176.64,235.62 -82.86,0.36 -165.72,0.73 -248.57,1.08 -66.81,-74.69 -133.62,-149.37 -224.27,-214.1 -90.67,-64.74 -205.2,-119.52 -322.62,-153.13 -117.43,-33.6 -237.78,-46.06 -346.5,-33.6 -108.71,12.44 -205.8,49.79 -289.19,94.18 -83.41,44.4 -153.13,95.85 -206.65,148.97 -53.52,53.1 -90.88,107.89 -128.23,162.66 -79.67,0.83 -159.32,1.65 -238.99,2.48z"/>
   <path class="fil1" d="M2786.02 1472.07c-47.31,92.11 -94.6,184.22 -169.71,270.11 -75.11,85.9 -178.01,165.57 -290.04,223.66 -112.03,58.1 -233.2,94.61 -354.36,112.86 -121.16,18.27 -242.33,18.27 -364.33,-4.14 -121.98,-22.41 -244.81,-67.21 -357.68,-131.12 -112.86,-63.9 -215.76,-146.88 -292.26,-227.2 -76.48,-80.32 -126.56,-157.97 -176.64,-235.62 82.86,-0.35 165.72,-0.73 248.57,-1.08 66.81,74.69 133.62,149.38 224.27,214.1 90.67,64.74 205.2,119.52 322.62,153.13 117.44,33.6 237.78,46.06 346.5,33.6 108.71,-12.44 205.8,-49.78 289.19,-94.18 83.41,-44.4 153.13,-95.85 206.65,-148.97 53.52,-53.1 90.88,-107.89 128.23,-162.66 79.67,-0.83 159.33,-1.65 238.99,-2.47z"/>
   <path class="fil2" d="M2600.16 678.05c316.29,-0.02 632.6,-0.05 948.88,-0.07 -61.18,35.34 -122.35,70.67 -163.63,104.51 -41.28,33.81 -62.64,66.14 -84.01,98.45 -212.83,0.31 -425.66,0.6 -638.5,0.91 -5.44,-34.85 -10.85,-69.72 -21.31,-103.68 -10.47,-33.96 -25.95,-67.05 -41.44,-100.12z"/>
   <path class="fil2" d="M2667.71 937.03c208.45,1.07 416.91,2.12 625.36,3.19 -53.25,37.7 -106.5,75.4 -148.55,109.33 -42.07,33.93 -72.95,64.09 -103.83,94.25 -122.9,0.06 -245.79,0.13 -368.7,0.19 3.45,-32.94 6.91,-65.87 6.19,-100.36 -0.73,-34.49 -5.6,-70.54 -10.48,-106.59z"/>
   <path class="fil2" d="M2673.93 1206.26c124.44,0.56 248.9,1.14 373.34,1.7 -53.25,35.36 -106.49,70.71 -145.31,104.74 -38.82,34.02 -63.2,66.74 -87.58,99.44 -64.95,-0.55 -129.89,-1.08 -194.84,-1.62 13.14,-35.84 26.3,-71.68 35.36,-105.72 9.06,-34.05 14.06,-66.29 19.05,-98.54z"/>
   <path class="fil2" d="M948.88 684.2c-316.29,-0.02 -632.6,-0.05 -948.88,-0.06 61.17,35.34 122.35,70.67 163.63,104.51 41.27,33.82 62.64,66.14 84.01,98.46 212.83,0.31 425.67,0.6 638.5,0.91 5.44,-34.85 10.86,-69.72 21.31,-103.68 10.47,-33.96 25.95,-67.05 41.44,-100.12z"/>
   <path class="fil2" d="M881.33 943.18c-208.45,1.07 -416.91,2.12 -625.36,3.19 53.25,37.7 106.5,75.4 148.55,109.33 42.07,33.93 72.95,64.09 103.83,94.25 122.9,0.07 245.79,0.13 368.7,0.19 -3.45,-32.94 -6.91,-65.87 -6.2,-100.36 0.73,-34.5 5.6,-70.54 10.49,-106.59z"/>
   <path class="fil2" d="M875.12 1212.41c-124.44,0.56 -248.9,1.14 -373.34,1.7 53.25,35.36 106.5,70.71 145.32,104.74 38.81,34.02 63.2,66.73 87.58,99.43 64.95,-0.54 129.9,-1.08 194.84,-1.62 -13.14,-35.84 -26.29,-71.68 -35.35,-105.71 -9.06,-34.05 -14.06,-66.3 -19.05,-98.54z"/>
   <g>
    <polygon class="fil3" points="1565.85,595.11 2349.36,595.11 2263.5,744.15 1716.23,744.15 1716.23,809.4 1565.85,809.4 1565.85,744.15 1565.85,604.86 "/>
    <polygon class="fil4" points="1070.23,896.59 2196.64,896.59 2105.7,1045.63 1710.34,1045.63 1710.34,1488.72 1561.29,1723.34 1561.29,1045.63 1153.14,1045.63 "/>
   </g>
  </g>
 </g>
</svg>
